# xmcd
#
# Track frame offsets:
#	150
#	37298
#	98955
#	139421
#	181616
#	211619
#	262619
#	306591
#
# Disc length: 4424 seconds
#
# Revision: 1
# Processed by: cddbd v1.5.2PL0 Copyright (c) Steve Scherf et al.
# Submitted via: audiograbber 1.83.01
#
DISCID=6c114608
DTITLE=Grateful Dead - 93-03-16 Capital Centre, Landover MD
DYEAR=1900
DGENRE=
TTITLE0=Men Smart Women Smarter
TTITLE1=Uncle John's Band
TTITLE2=Drums
TTITLE3=Space
TTITLE4=The Last Time
TTITLE5=Morning Dew
TTITLE6=Sugar Magnolia
TTITLE7=US Blues
EXTD=
EXTT0=
EXTT1=
EXTT2=
EXTT3=
EXTT4=
EXTT5=
EXTT6=
EXTT7=
PLAYORDER=
